<svg width="26" height="26" viewBox="0 0 26 26" fill="none" xmlns="http://www.w3.org/2000/svg">
<circle cx="13" cy="13" r="13" fill="#131B27"/>
<path d="M19.9999 11.0777L17.84 7.73871H8.41372L6.25378 11.0769C6.25378 11.8229 6.88195 12.4518 7.6287 12.4518C8.37469 12.4518 9.00361 11.8627 9.00361 11.0769C9.00361 11.8229 9.63178 12.4518 10.3785 12.4518C11.1245 12.4518 11.7534 11.8627 11.7534 11.0769C11.7534 11.8229 12.3816 12.4518 13.1284 12.4518C13.8743 12.4518 14.5033 11.8627 14.5033 11.0769C14.5033 11.8229 15.1314 12.4518 15.8782 12.4518C16.6242 12.4518 17.2531 11.8627 17.2531 11.0769C17.2531 11.8229 17.8813 12.4518 18.628 12.4518C19.3718 12.4518 20 11.8627 20 11.0777L19.9999 11.0777Z" fill="white"/>
<path d="M18.6257 14.0234C18.1934 14.0234 17.8009 13.9446 17.4474 13.7877V16.7725H8.8062V13.7877C8.45272 13.9446 8.06021 14.0234 7.62792 14.0234C7.51009 14.0234 7.35324 14.0234 7.23541 13.9844V18.3432H19.0175L19.0182 13.9836C18.9004 14.0234 18.7435 14.0234 18.6257 14.0234L18.6257 14.0234Z" fill="white"/>
</svg>
