<svg width="26" height="26" viewBox="0 0 26 26" fill="none" xmlns="http://www.w3.org/2000/svg">
<circle cx="13" cy="13" r="13" fill="#131B27"/>
<path d="M17.3506 14.4709C16.3727 14.6941 14.6228 14.9173 14.0048 14.7283C13.7474 14.6083 13.1127 13.9045 12.7696 13.5272C12.4439 13.1666 12.1349 12.8409 11.8433 12.5661C11.346 12.0688 10.9513 11.7257 10.2308 11.5366C9.35547 11.3135 7.1599 11.0561 6.54188 12.5145C5.88975 14.0413 5.99297 18.0225 6.02715 20.8535C6.02715 21.0934 6.1813 21.2999 6.43866 21.2999H11.1229C11.3977 21.2999 11.5177 21.1457 11.5344 20.9225C11.5518 20.7684 11.706 18.074 11.8092 16.1525C12.2556 16.5815 12.7013 16.942 13.1992 17.0962C13.6624 17.2503 14.2113 17.3019 14.7776 17.3019C16.1161 17.3019 17.5229 17.0104 17.8835 16.9246C18.5524 16.7705 18.9813 16.1009 18.8272 15.432C18.6891 14.7457 18.0202 14.3168 17.3507 14.4709L17.3506 14.4709Z" fill="white"/>
<path d="M12.1007 7.84852C12.1007 9.42154 10.8252 10.6964 9.25213 10.6964C7.67905 10.6964 6.4043 9.42159 6.4043 7.84852C6.4043 6.2755 7.67906 5 9.25213 5C10.8252 5 12.1007 6.27544 12.1007 7.84852" fill="white"/>
<path d="M15.0516 11.7948H16.9048C16.9564 11.7948 16.9906 11.7432 16.9906 11.6916L16.819 10.9711C16.7674 10.7653 16.6132 10.6105 16.4242 10.5596C16.39 10.5596 16.3726 10.5596 16.3384 10.577C16.2352 10.6286 16.1152 10.6628 15.9778 10.6628C15.8579 10.6628 15.7379 10.6286 15.6173 10.577C15.5998 10.5596 15.5657 10.5596 15.5315 10.5596C15.3425 10.6112 15.1883 10.7653 15.1367 10.9711L14.9651 11.6916C14.9484 11.7432 15 11.7948 15.0516 11.7948H15.0516Z" fill="white"/>
<path d="M16.5619 9.83831C16.5619 10.6164 15.395 10.6164 15.395 9.83831C15.395 9.06086 16.5619 9.06086 16.5619 9.83831Z" fill="white"/>
<path d="M20.6621 8.0201H14.1254C13.9364 8.0201 13.7822 8.17426 13.7822 8.36326V12.6527C13.7822 12.8417 13.9364 12.9958 14.1254 12.9958H20.6628C20.8518 12.9958 21.006 12.8417 21.006 12.6527V8.36326C21.0053 8.17425 20.8511 8.0201 20.6621 8.0201H20.6621ZM20.4905 12.4979H14.297V8.55165H20.4912L20.4905 12.4979Z" fill="white"/>
<path d="M17.8145 9.77002H19.5478C19.6852 9.77002 19.8051 9.65005 19.8051 9.51265C19.8051 9.37526 19.6852 9.25529 19.5478 9.25529H17.8145C17.6771 9.25529 17.5571 9.37526 17.5571 9.51265C17.5571 9.65005 17.6771 9.77002 17.8145 9.77002Z" fill="white"/>
<path d="M17.8145 10.782H19.5478C19.6852 10.782 19.8051 10.662 19.8051 10.5246C19.8051 10.3872 19.6852 10.2672 19.5478 10.2672H17.8145C17.6771 10.2672 17.5571 10.3872 17.5571 10.5246C17.5571 10.662 17.6771 10.782 17.8145 10.782Z" fill="white"/>
<path d="M17.8145 11.7948H19.5478C19.6852 11.7948 19.8051 11.6748 19.8051 11.5374C19.8051 11.4 19.6852 11.2801 19.5478 11.2801H17.8145C17.6771 11.2801 17.5571 11.4 17.5571 11.5374C17.5571 11.6742 17.6771 11.7948 17.8145 11.7948Z" fill="white"/>
</svg>
