<svg width="26" height="26" viewBox="0 0 26 26" fill="none" xmlns="http://www.w3.org/2000/svg">
<circle cx="13" cy="13" r="13" fill="#131B27"/>
<path d="M15.0306 7.59635L14.8381 4.48885C14.7693 3.63635 14.2193 3.5676 14.2193 3.5676H14.1368L14.2743 7.59206H13.8979L13.751 3.5676H13.1735V7.59206H12.8254V3.5676H12.2479L12.1019 7.59206H11.7255L11.863 3.5676H11.7805C11.7805 3.5676 11.2305 3.63635 11.1617 4.48885L10.9692 7.59635C10.9692 7.59635 10.9744 9.43713 12.3769 9.82737L11.9961 21.6627C11.9961 21.6627 11.8629 22.4327 12.999 22.4327C14.1351 22.4327 14.0019 21.6627 14.0019 21.6627L13.6221 9.82825C15.0254 9.4381 15.0306 7.59635 15.0306 7.59635H15.0306Z" fill="white"/>
</svg>
