<svg width="26" height="26" viewBox="0 0 26 26" fill="none" xmlns="http://www.w3.org/2000/svg">
<circle cx="13" cy="13" r="13" fill="#131B27"/>
<path d="M7 16.2523C7 16.8523 7.48741 17.3777 8.12535 17.3777H17.8786C18.5166 17.3777 19.004 16.8523 19.004 16.2523V15.8775H7V16.2523Z" fill="white"/>
<path d="M17.1282 8.37488H16.0028V8H8.50024V13.2519C8.50024 14.302 9.32526 15.1277 10.3761 15.1277H14.127C14.8775 15.1277 15.5527 14.6776 15.8523 14.0024L17.1282 14.0017C18.1783 14.0017 19.004 13.1766 19.004 12.1258V10.25C19.0033 9.20061 18.1783 8.37489 17.1282 8.37489L17.1282 8.37488ZM17.1282 12.5014H16.0028V9.87583H17.1282C17.3533 9.87583 17.5031 10.0256 17.5031 10.2507V12.1265C17.5031 12.3516 17.3532 12.5014 17.1282 12.5014Z" fill="white"/>
</svg>
