<svg width="26" height="26" viewBox="0 0 26 26" fill="none" xmlns="http://www.w3.org/2000/svg">
<circle cx="13" cy="13" r="13" fill="#131B27"/>
<path d="M10.2826 8.49971C10.2247 8.49971 10.1711 8.53416 10.1475 8.58721C10.1229 8.64026 10.1317 8.70315 10.1705 8.74689L12.8699 11.8636C12.8983 11.8958 12.9393 11.915 12.9825 11.915C13.0257 11.915 13.0667 11.8964 13.0957 11.8641L15.8246 8.74744C15.8629 8.70369 15.8727 8.6408 15.8481 8.58721C15.8235 8.53416 15.7705 8.49971 15.7114 8.49971L10.2826 8.49971Z" fill="white"/>
<path d="M13.4938 14.2628C13.4938 14.0178 13.5835 13.781 13.7464 13.5973L19.8747 6.70394C19.9857 6.57926 20.0125 6.40152 19.9447 6.24949C19.8763 6.09746 19.7254 6.00012 19.5586 6.00012H6.44127C6.27447 6.00012 6.12354 6.09747 6.05518 6.24949C5.98682 6.40151 6.01362 6.57926 6.12463 6.7034L12.2414 13.5984C12.4032 13.7811 12.4929 14.0168 12.4935 14.2607L12.4979 17.998C12.4979 18.2632 12.3929 18.5186 12.2053 18.7062C12.0183 18.8949 11.7634 18.9999 11.4982 18.9999H9.00001C8.44822 18.9999 7.99978 19.4477 7.99978 20.0001H18C18 19.4483 17.5521 18.9999 16.9998 18.9999H14.4984C13.9466 18.9999 13.4987 18.5531 13.4981 18.0013L13.4938 14.2628ZM17.8201 7.00031C17.9005 7.00031 17.9732 7.04734 18.006 7.12008C18.0383 7.19281 18.0257 7.27921 17.9726 7.33883L13.1464 12.7676C13.1081 12.8114 13.0524 12.836 12.9938 12.836C12.9359 12.836 12.8801 12.8108 12.8418 12.7676L8.02442 7.33883C7.97137 7.27922 7.9588 7.19335 7.99106 7.12008C8.02387 7.04734 8.09716 7.00031 8.177 7.00031H17.8201Z" fill="white"/>
</svg>
