<svg width="106" height="26" viewBox="0 0 106 26" fill="none" xmlns="http://www.w3.org/2000/svg">
<rect width="106" height="26" rx="13" fill="#131B27"/>
<path d="M21.3474 14.4698C20.3703 14.6928 18.6218 14.9158 18.0043 14.727C17.7471 14.6071 17.1129 13.9039 16.7701 13.5269C16.4446 13.1666 16.1359 12.8411 15.8445 12.5666C15.3476 12.0697 14.9532 11.7268 14.2333 11.5379C13.3587 11.3149 11.1648 11.0578 10.5473 12.515C9.8957 14.0405 9.99884 18.0186 10.033 20.8473C10.033 21.0871 10.187 21.2934 10.4442 21.2934H15.1247C15.3992 21.2934 15.5191 21.1393 15.5359 20.9163C15.5533 20.7623 15.7073 18.0701 15.8104 16.1501C16.2564 16.5787 16.7018 16.939 17.1994 17.093C17.6621 17.2471 18.2106 17.2986 18.7765 17.2986C20.1139 17.2986 21.5195 17.0073 21.8799 16.9216C22.5482 16.7676 22.9768 16.0985 22.8228 15.4302C22.6849 14.7444 22.0165 14.3158 21.3475 14.4699L21.3474 14.4698Z" fill="white"/>
<path d="M16.102 7.85274C16.102 9.42451 14.8276 10.6983 13.2557 10.6983C11.6839 10.6983 10.4102 9.42456 10.4102 7.85274C10.4102 6.28097 11.6839 5.00648 13.2557 5.00648C14.8275 5.00648 16.102 6.2809 16.102 7.85274" fill="white"/>
<path d="M19.05 11.7959H20.9018C20.9533 11.7959 20.9875 11.7443 20.9875 11.6927L20.816 10.9728C20.7645 10.7672 20.6105 10.6125 20.4216 10.5616C20.3874 10.5616 20.37 10.5616 20.3359 10.5791C20.2327 10.6306 20.1129 10.6648 19.9756 10.6648C19.8557 10.6648 19.7358 10.6306 19.6153 10.5791C19.5979 10.5616 19.5637 10.5616 19.5296 10.5616C19.3407 10.6132 19.1867 10.7672 19.1351 10.9728L18.9637 11.6927C18.9469 11.7443 18.9985 11.7959 19.0501 11.7959H19.05Z" fill="white"/>
<path d="M20.5595 9.84094C20.5595 10.6185 19.3936 10.6185 19.3936 9.84094C19.3936 9.06411 20.5595 9.06411 20.5595 9.84094Z" fill="white"/>
<path d="M24.6562 8.02419H18.1246C17.9358 8.02419 17.7817 8.17821 17.7817 8.36707V12.6531C17.7817 12.8419 17.9358 12.996 18.1246 12.996H24.6568C24.8457 12.996 24.9997 12.8419 24.9997 12.6531V8.36707C24.9991 8.17821 24.845 8.02419 24.6562 8.02419H24.6562ZM24.4847 12.4984H18.2961V8.55531H24.4854L24.4847 12.4984Z" fill="white"/>
<path d="M21.8109 9.77271H23.5428C23.6801 9.77271 23.7999 9.65283 23.7999 9.51555C23.7999 9.37826 23.6801 9.25838 23.5428 9.25838H21.8109C21.6736 9.25838 21.5537 9.37826 21.5537 9.51555C21.5537 9.65283 21.6736 9.77271 21.8109 9.77271Z" fill="white"/>
<path d="M21.8109 10.7839H23.5428C23.6801 10.7839 23.7999 10.664 23.7999 10.5267C23.7999 10.3894 23.6801 10.2695 23.5428 10.2695H21.8109C21.6736 10.2695 21.5537 10.3894 21.5537 10.5267C21.5537 10.664 21.6736 10.7839 21.8109 10.7839Z" fill="white"/>
<path d="M21.8109 11.7959H23.5428C23.6801 11.7959 23.7999 11.676 23.7999 11.5387C23.7999 11.4014 23.6801 11.2816 23.5428 11.2816H21.8109C21.6736 11.2816 21.5537 11.4014 21.5537 11.5387C21.5537 11.6753 21.6736 11.7959 21.8109 11.7959Z" fill="white"/>
<path d="M33.023 17V9.322H36.081C36.7703 9.322 37.2983 9.52 37.665 9.916C38.039 10.3047 38.226 10.84 38.226 11.522C38.226 12.204 38.039 12.743 37.665 13.139C37.2983 13.5277 36.7703 13.722 36.081 13.722H33.947V17H33.023ZM33.947 12.908H36.081C36.4477 12.908 36.73 12.8127 36.928 12.622C37.1333 12.4313 37.236 12.16 37.236 11.808V11.236C37.236 10.884 37.1333 10.6127 36.928 10.422C36.73 10.2313 36.4477 10.136 36.081 10.136H33.947V12.908ZM39.4985 17V11.324H40.3785V12.369H40.4335C40.5361 12.0977 40.7195 11.8557 40.9835 11.643C41.2475 11.4303 41.6105 11.324 42.0725 11.324H42.4135V12.204H41.8965C41.4198 12.204 41.0458 12.2957 40.7745 12.479C40.5105 12.655 40.3785 12.8787 40.3785 13.15V17H39.4985ZM43.9775 9.993C43.7869 9.993 43.6475 9.949 43.5595 9.861C43.4789 9.76567 43.4385 9.64467 43.4385 9.498V9.355C43.4385 9.20833 43.4789 9.091 43.5595 9.003C43.6475 8.90767 43.7869 8.86 43.9775 8.86C44.1682 8.86 44.3039 8.90767 44.3845 9.003C44.4725 9.091 44.5165 9.20833 44.5165 9.355V9.498C44.5165 9.64467 44.4725 9.76567 44.3845 9.861C44.3039 9.949 44.1682 9.993 43.9775 9.993ZM43.5375 11.324H44.4175V17H43.5375V11.324ZM47.5415 17L45.5505 11.324H46.4305L47.4205 14.14L48.0365 16.076H48.0915L48.7075 14.14L49.7195 11.324H50.5665L48.5645 17H47.5415ZM55.7299 17C55.3999 17 55.1616 16.912 55.0149 16.736C54.8756 16.56 54.7876 16.34 54.7509 16.076H54.6959C54.5713 16.428 54.3659 16.692 54.0799 16.868C53.7939 17.044 53.4529 17.132 53.0569 17.132C52.4556 17.132 51.9863 16.978 51.6489 16.67C51.3189 16.362 51.1539 15.944 51.1539 15.416C51.1539 14.8807 51.3483 14.47 51.7369 14.184C52.1329 13.898 52.7453 13.755 53.5739 13.755H54.6959V13.194C54.6959 12.7907 54.5859 12.4827 54.3659 12.27C54.1459 12.0573 53.8086 11.951 53.3539 11.951C53.0093 11.951 52.7196 12.028 52.4849 12.182C52.2576 12.336 52.0669 12.5413 51.9129 12.798L51.3849 12.303C51.5389 11.995 51.7846 11.7347 52.1219 11.522C52.4593 11.302 52.8846 11.192 53.3979 11.192C54.0873 11.192 54.6226 11.3607 55.0039 11.698C55.3853 12.0353 55.5759 12.5047 55.5759 13.106V16.23H56.2249V17H55.7299ZM53.1999 16.384C53.4199 16.384 53.6216 16.3583 53.8049 16.307C53.9883 16.2557 54.1459 16.1823 54.2779 16.087C54.4099 15.9917 54.5126 15.8817 54.5859 15.757C54.6593 15.6323 54.6959 15.4967 54.6959 15.35V14.415H53.5299C53.0239 14.415 52.6536 14.4883 52.4189 14.635C52.1916 14.7817 52.0779 14.9943 52.0779 15.273V15.504C52.0779 15.7827 52.1769 15.999 52.3749 16.153C52.5803 16.307 52.8553 16.384 53.1999 16.384ZM58.7349 17C58.4269 17 58.1922 16.9157 58.0309 16.747C57.8769 16.571 57.7999 16.3437 57.7999 16.065V12.094H56.8649V11.324H57.3929C57.5836 11.324 57.7119 11.2873 57.7779 11.214C57.8512 11.1333 57.8879 10.9977 57.8879 10.807V9.751H58.6799V11.324H59.9229V12.094H58.6799V16.23H59.8349V17H58.7349ZM63.4284 17.132C63.0397 17.132 62.6877 17.0623 62.3724 16.923C62.0644 16.7837 61.7967 16.5857 61.5694 16.329C61.3494 16.065 61.177 15.7533 61.0524 15.394C60.935 15.0273 60.8764 14.6167 60.8764 14.162C60.8764 13.7147 60.935 13.3077 61.0524 12.941C61.177 12.5743 61.3494 12.2627 61.5694 12.006C61.7967 11.742 62.0644 11.5403 62.3724 11.401C62.6877 11.2617 63.0397 11.192 63.4284 11.192C63.8097 11.192 64.1507 11.2617 64.4514 11.401C64.752 11.5403 65.0087 11.7347 65.2214 11.984C65.434 12.226 65.5954 12.5157 65.7054 12.853C65.8227 13.1903 65.8814 13.5607 65.8814 13.964V14.382H61.8004V14.646C61.8004 14.888 61.837 15.1153 61.9104 15.328C61.991 15.5333 62.101 15.713 62.2404 15.867C62.387 16.021 62.563 16.142 62.7684 16.23C62.981 16.318 63.2194 16.362 63.4834 16.362C63.8427 16.362 64.1544 16.2777 64.4184 16.109C64.6897 15.9403 64.8987 15.6983 65.0454 15.383L65.6724 15.834C65.489 16.2227 65.203 16.538 64.8144 16.78C64.4257 17.0147 63.9637 17.132 63.4284 17.132ZM63.4284 11.929C63.1864 11.929 62.9664 11.973 62.7684 12.061C62.5704 12.1417 62.398 12.259 62.2514 12.413C62.112 12.567 62.002 12.7503 61.9214 12.963C61.8407 13.1683 61.8004 13.3957 61.8004 13.645V13.722H64.9354V13.601C64.9354 13.095 64.796 12.6917 64.5174 12.391C64.246 12.083 63.883 11.929 63.4284 11.929ZM72.7251 17.132C71.7498 17.132 70.9908 16.802 70.4481 16.142C69.9054 15.4747 69.6341 14.4957 69.6341 13.205C69.6341 11.9143 69.9054 10.9243 70.4481 10.235C70.9908 9.53833 71.7498 9.19 72.7251 9.19C73.3704 9.19 73.9094 9.33667 74.3421 9.63C74.7821 9.92333 75.1231 10.3377 75.3651 10.873L74.6171 11.324C74.4631 10.928 74.2284 10.6127 73.9131 10.378C73.5978 10.136 73.2018 10.015 72.7251 10.015C72.3951 10.015 72.0981 10.0773 71.8341 10.202C71.5774 10.3267 71.3574 10.5063 71.1741 10.741C70.9981 10.9683 70.8624 11.2433 70.7671 11.566C70.6718 11.8813 70.6241 12.237 70.6241 12.633V13.777C70.6241 14.569 70.8074 15.1887 71.1741 15.636C71.5408 16.0833 72.0578 16.307 72.7251 16.307C73.2164 16.307 73.6271 16.1823 73.9571 15.933C74.2871 15.6763 74.5291 15.339 74.6831 14.921L75.4201 15.383C75.1781 15.9257 74.8298 16.3547 74.3751 16.67C73.9204 16.978 73.3704 17.132 72.7251 17.132ZM77.6981 17C77.3901 17 77.1555 16.9157 76.9941 16.747C76.8401 16.571 76.7631 16.351 76.7631 16.087V8.86H77.6431V16.23H78.4791V17H77.6981ZM83.2582 16.076H83.2142C83.1555 16.208 83.0822 16.34 82.9942 16.472C82.9135 16.5967 82.8109 16.7103 82.6862 16.813C82.5615 16.9083 82.4112 16.9853 82.2352 17.044C82.0592 17.1027 81.8539 17.132 81.6192 17.132C81.0325 17.132 80.5669 16.945 80.2222 16.571C79.8775 16.1897 79.7052 15.6543 79.7052 14.965V11.324H80.5852V14.811C80.5852 15.8303 81.0179 16.34 81.8832 16.34C82.0592 16.34 82.2279 16.318 82.3892 16.274C82.5579 16.23 82.7045 16.164 82.8292 16.076C82.9612 15.988 83.0639 15.878 83.1372 15.746C83.2179 15.6067 83.2582 15.4417 83.2582 15.251V11.324H84.1382V17H83.2582V16.076ZM86.0121 8.86H86.8921V12.248H86.9361C87.0828 11.8887 87.2955 11.6247 87.5741 11.456C87.8601 11.28 88.2011 11.192 88.5971 11.192C88.9491 11.192 89.2681 11.2617 89.5541 11.401C89.8401 11.5403 90.0821 11.7383 90.2801 11.995C90.4855 12.2517 90.6395 12.5633 90.7421 12.93C90.8521 13.2967 90.9071 13.7073 90.9071 14.162C90.9071 14.6167 90.8521 15.0273 90.7421 15.394C90.6395 15.7607 90.4855 16.0723 90.2801 16.329C90.0821 16.5857 89.8401 16.7837 89.5541 16.923C89.2681 17.0623 88.9491 17.132 88.5971 17.132C87.8271 17.132 87.2735 16.78 86.9361 16.076H86.8921V17H86.0121V8.86ZM88.3551 16.34C88.8538 16.34 89.2461 16.186 89.5321 15.878C89.8181 15.5627 89.9611 15.152 89.9611 14.646V13.678C89.9611 13.172 89.8181 12.765 89.5321 12.457C89.2461 12.1417 88.8538 11.984 88.3551 11.984C88.1571 11.984 87.9665 12.0133 87.7831 12.072C87.6071 12.1233 87.4531 12.1967 87.3211 12.292C87.1891 12.3873 87.0828 12.5047 87.0021 12.644C86.9288 12.776 86.8921 12.919 86.8921 13.073V15.185C86.8921 15.3683 86.9288 15.5333 87.0021 15.68C87.0828 15.8193 87.1891 15.9403 87.3211 16.043C87.4531 16.1383 87.6071 16.2117 87.7831 16.263C87.9665 16.3143 88.1571 16.34 88.3551 16.34Z" fill="white"/>
</svg>
