<svg width="26" height="26" viewBox="0 0 26 26" fill="none" xmlns="http://www.w3.org/2000/svg">
<circle cx="13" cy="13" r="13" fill="#131B27"/>
<path d="M18.9852 15.9794H18.9997V7H18.9866L10.2829 8.1714V15.2392C9.91631 15.1224 9.52959 15.0817 9.14661 15.1192C7.86741 15.2485 6.90969 16.1584 7.00677 17.1577C7.10381 18.1571 8.21901 18.8663 9.49821 18.7416C10.7774 18.6169 11.7337 17.7061 11.6366 16.7077C11.6366 16.6908 11.6366 16.674 11.6282 16.6571H11.639V10.5268L17.639 9.65068V14.5599C17.2724 14.4432 16.8857 14.4024 16.5027 14.4399C15.2235 14.5599 14.2658 15.4744 14.3633 16.4738C14.4604 17.4731 15.5756 18.1823 16.8548 18.0576C18.134 17.933 19.0917 17.0231 18.9941 16.0238C18.9913 16.013 18.9866 15.9999 18.9852 15.9792L18.9852 15.9794Z" fill="white"/>
</svg>
