<svg width="26" height="26" viewBox="0 0 26 26" fill="none" xmlns="http://www.w3.org/2000/svg">
<circle cx="13" cy="13" r="13" fill="#131B27"/>
<path d="M17.9852 15.9794H17.9997V7H17.9866L9.28287 8.1714V15.2392C8.91631 15.1224 8.52959 15.0817 8.14661 15.1192C6.86741 15.2485 5.90969 16.1584 6.00677 17.1577C6.10381 18.1571 7.21901 18.8663 8.49821 18.7416C9.77741 18.6169 10.7337 17.7061 10.6366 16.7077C10.6366 16.6908 10.6366 16.674 10.6282 16.6571H10.639V10.5268L16.639 9.65068V14.5599C16.2724 14.4432 15.8857 14.4024 15.5027 14.4399C14.2235 14.5599 13.2658 15.4744 13.3633 16.4738C13.4604 17.4731 14.5756 18.1823 15.8548 18.0576C17.134 17.933 18.0917 17.0231 17.9941 16.0238C17.9913 16.013 17.9866 15.9999 17.9852 15.9792L17.9852 15.9794Z" fill="white"/>
</svg>
