<svg width="63" height="26" viewBox="0 0 63 26" fill="none" xmlns="http://www.w3.org/2000/svg">
<rect width="63" height="26" rx="13" fill="#131B27"/>
<path d="M23.946 17V9.322H25.189V15.9H28.313V17H23.946ZM34.1487 15.834H34.1047C34.024 16.208 33.804 16.5197 33.4447 16.769C33.0927 17.011 32.6233 17.132 32.0367 17.132C31.582 17.132 31.1603 17.0477 30.7717 16.879C30.383 16.703 30.0457 16.45 29.7597 16.12C29.481 15.7827 29.261 15.3683 29.0997 14.877C28.9457 14.3783 28.8687 13.8063 28.8687 13.161C28.8687 12.523 28.9493 11.9583 29.1107 11.467C29.272 10.9683 29.4993 10.5503 29.7927 10.213C30.086 9.87567 30.438 9.62267 30.8487 9.454C31.2593 9.278 31.7177 9.19 32.2237 9.19C32.913 9.19 33.496 9.344 33.9727 9.652C34.4493 9.95267 34.8197 10.3743 35.0837 10.917L34.0717 11.511C33.925 11.1517 33.6977 10.862 33.3897 10.642C33.0817 10.4147 32.693 10.301 32.2237 10.301C31.615 10.301 31.1237 10.4953 30.7497 10.884C30.383 11.2727 30.1997 11.8227 30.1997 12.534V13.788C30.1997 14.4993 30.383 15.0493 30.7497 15.438C31.1237 15.8267 31.615 16.021 32.2237 16.021C32.4657 16.021 32.6967 15.9917 32.9167 15.933C33.1367 15.867 33.3273 15.7753 33.4887 15.658C33.6573 15.5333 33.7893 15.383 33.8847 15.207C33.9873 15.0237 34.0387 14.811 34.0387 14.569V13.975H32.4547V12.908H35.2377V17H34.1487V15.834ZM36.9655 9.322H40.3645C41.0025 9.322 41.5012 9.50167 41.8605 9.861C42.2272 10.2203 42.4105 10.7007 42.4105 11.302C42.4105 11.588 42.3702 11.8337 42.2895 12.039C42.2089 12.237 42.1062 12.402 41.9815 12.534C41.8569 12.6587 41.7139 12.754 41.5525 12.82C41.3912 12.8787 41.2335 12.9153 41.0795 12.93V12.996C41.2335 13.0033 41.4022 13.04 41.5855 13.106C41.7762 13.172 41.9522 13.2783 42.1135 13.425C42.2749 13.5643 42.4105 13.7477 42.5205 13.975C42.6305 14.195 42.6855 14.4663 42.6855 14.789C42.6855 15.097 42.6342 15.3867 42.5315 15.658C42.4362 15.9293 42.3005 16.164 42.1245 16.362C41.9485 16.56 41.7395 16.7177 41.4975 16.835C41.2555 16.945 40.9915 17 40.7055 17H36.9655V9.322ZM38.2085 15.933H40.3425C40.6652 15.933 40.9182 15.8487 41.1015 15.68C41.2849 15.5113 41.3765 15.2693 41.3765 14.954V14.58C41.3765 14.2647 41.2849 14.0227 41.1015 13.854C40.9182 13.6853 40.6652 13.601 40.3425 13.601H38.2085V15.933ZM38.2085 12.567H40.1335C40.4415 12.567 40.6799 12.49 40.8485 12.336C41.0172 12.1747 41.1015 11.9473 41.1015 11.654V11.302C41.1015 11.0087 41.0172 10.785 40.8485 10.631C40.6799 10.4697 40.4415 10.389 40.1335 10.389H38.2085V12.567ZM46.7862 10.422V17H45.5432V10.422H43.2552V9.322H49.0742V10.422H46.7862ZM52.1008 16.307V14.129H50.0768V13.15H52.1008V10.972H53.1788V13.15H55.2028V14.129H53.1788V16.307H52.1008Z" fill="white"/>
<mask id="mask0" mask-type="alpha" maskUnits="userSpaceOnUse" x="0" y="0" width="18" height="26">
<path d="M0 13C0 5.8203 5.8203 0 13 0L18 0V26H13C5.8203 26 0 20.1797 0 13V13Z" fill="#131B27"/>
</mask>
<g mask="url(#mask0)">
<rect y="-4" width="3" height="34.0056" fill="#F00000"/>
<rect x="3" y="-4" width="3" height="34.0056" fill="#FF8000"/>
<rect x="6" y="-4" width="3" height="34.0056" fill="#FFFF00"/>
<rect x="9" y="-4" width="3" height="34.0056" fill="#007940"/>
<rect x="12" y="-4" width="3" height="34.0056" fill="#4040FF"/>
<rect x="15" y="-4" width="3" height="34.0056" fill="#A000C0"/>
</g>
</svg>
